<mxfile host="Electron" modified="2024-01-12T19:52:19.586Z" agent="Mozilla/5.0 (Windows NT 10.0; Win64; x64) AppleWebKit/537.36 (KHTML, like Gecko) draw.io/22.1.18 Chrome/120.0.6099.199 Electron/28.1.2 Safari/537.36" etag="T88eJnIIr1ZQ9EViYP9S" version="22.1.18" type="device" pages="2">
  <diagram name="Страница — 1" id="4nss-KkPXFQWBisD1zAM">
    <mxGraphModel dx="2012" dy="683" grid="1" gridSize="10" guides="1" tooltips="1" connect="1" arrows="1" fold="1" page="1" pageScale="1" pageWidth="827" pageHeight="1169" math="0" shadow="0">
      <root>
        <mxCell id="0" />
        <mxCell id="1" parent="0" />
        <mxCell id="ir2lZSe-M-KhIsvbzkP0-20" value="" style="shape=table;childLayout=tableLayout;startSize=0;fillColor=none;collapsible=0;recursiveResize=0;expand=0;" parent="1" vertex="1">
          <mxGeometry x="-210" y="110" width="720" height="540" as="geometry" />
        </mxCell>
        <mxCell id="ir2lZSe-M-KhIsvbzkP0-21" value="" style="shape=tableRow;horizontal=0;swimlaneHead=0;swimlaneBody=0;top=0;left=0;strokeColor=inherit;bottom=0;right=0;dropTarget=0;fontStyle=0;fillColor=none;points=[[0,0.5],[1,0.5]];portConstraint=eastwest;startSize=0;collapsible=0;recursiveResize=0;expand=0;" parent="ir2lZSe-M-KhIsvbzkP0-20" vertex="1">
          <mxGeometry width="720" height="540" as="geometry" />
        </mxCell>
        <mxCell id="ir2lZSe-M-KhIsvbzkP0-22" value="Член команды" style="swimlane;swimlaneHead=0;swimlaneBody=0;fontStyle=1;strokeColor=inherit;connectable=0;fillColor=none;startSize=20;collapsible=0;recursiveResize=0;expand=0;" parent="ir2lZSe-M-KhIsvbzkP0-21" vertex="1">
          <mxGeometry width="270" height="540" as="geometry">
            <mxRectangle width="270" height="540" as="alternateBounds" />
          </mxGeometry>
        </mxCell>
        <mxCell id="ir2lZSe-M-KhIsvbzkP0-23" value="Система" style="swimlane;swimlaneHead=0;swimlaneBody=0;fontStyle=1;strokeColor=inherit;connectable=0;fillColor=none;startSize=20;collapsible=0;recursiveResize=0;expand=0;" parent="ir2lZSe-M-KhIsvbzkP0-21" vertex="1">
          <mxGeometry x="270" width="450" height="540" as="geometry">
            <mxRectangle width="450" height="540" as="alternateBounds" />
          </mxGeometry>
        </mxCell>
        <mxCell id="xCekLvlc1uRamUwz6qQX-13" style="edgeStyle=orthogonalEdgeStyle;rounded=0;orthogonalLoop=1;jettySize=auto;html=1;exitX=0.5;exitY=1;exitDx=0;exitDy=0;endArrow=open;endFill=0;" parent="ir2lZSe-M-KhIsvbzkP0-23" source="ir2lZSe-M-KhIsvbzkP0-47" target="ir2lZSe-M-KhIsvbzkP0-51" edge="1">
          <mxGeometry relative="1" as="geometry" />
        </mxCell>
        <mxCell id="ir2lZSe-M-KhIsvbzkP0-47" value="Проводит валидацию полей" style="html=1;align=center;verticalAlign=top;rounded=1;absoluteArcSize=1;arcSize=10;dashed=0;whiteSpace=wrap;fillColor=#ffe6cc;strokeColor=#d79b00;" parent="ir2lZSe-M-KhIsvbzkP0-23" vertex="1">
          <mxGeometry x="89" y="70" width="140" height="40" as="geometry" />
        </mxCell>
        <mxCell id="ir2lZSe-M-KhIsvbzkP0-51" value="" style="rhombus;whiteSpace=wrap;html=1;verticalAlign=top;rounded=0;arcSize=10;dashed=0;fillColor=#647687;fontColor=#ffffff;strokeColor=#314354;" parent="ir2lZSe-M-KhIsvbzkP0-23" vertex="1">
          <mxGeometry x="144" y="140" width="30" height="20" as="geometry" />
        </mxCell>
        <mxCell id="ir2lZSe-M-KhIsvbzkP0-64" value="&lt;font style=&quot;font-size: 11px;&quot;&gt;[успех]&lt;/font&gt;" style="text;html=1;align=center;verticalAlign=middle;resizable=0;points=[];autosize=1;strokeColor=none;fillColor=none;" parent="ir2lZSe-M-KhIsvbzkP0-23" vertex="1">
          <mxGeometry x="174" y="120" width="60" height="30" as="geometry" />
        </mxCell>
        <mxCell id="ir2lZSe-M-KhIsvbzkP0-56" value="" style="rounded=0;whiteSpace=wrap;html=1;fillColor=#ffe6cc;strokeColor=#d79b00;" parent="ir2lZSe-M-KhIsvbzkP0-23" vertex="1">
          <mxGeometry x="113" y="110" width="17" height="10" as="geometry" />
        </mxCell>
        <mxCell id="ir2lZSe-M-KhIsvbzkP0-54" value="" style="edgeStyle=orthogonalEdgeStyle;rounded=0;orthogonalLoop=1;jettySize=auto;html=1;endArrow=open;endFill=0;exitX=1;exitY=0.5;exitDx=0;exitDy=0;entryX=0.5;entryY=0;entryDx=0;entryDy=0;" parent="ir2lZSe-M-KhIsvbzkP0-23" source="ir2lZSe-M-KhIsvbzkP0-51" target="xCekLvlc1uRamUwz6qQX-7" edge="1">
          <mxGeometry relative="1" as="geometry">
            <mxPoint x="99" y="330" as="targetPoint" />
            <Array as="points">
              <mxPoint x="239" y="150" />
              <mxPoint x="239" y="280" />
              <mxPoint x="148" y="280" />
            </Array>
          </mxGeometry>
        </mxCell>
        <mxCell id="xCekLvlc1uRamUwz6qQX-19" style="edgeStyle=orthogonalEdgeStyle;rounded=0;orthogonalLoop=1;jettySize=auto;html=1;endArrow=open;endFill=0;" parent="ir2lZSe-M-KhIsvbzkP0-23" source="xCekLvlc1uRamUwz6qQX-7" edge="1">
          <mxGeometry relative="1" as="geometry">
            <mxPoint x="148" y="380" as="targetPoint" />
          </mxGeometry>
        </mxCell>
        <mxCell id="xCekLvlc1uRamUwz6qQX-7" value="Сохраняет задачу в системе" style="html=1;align=center;verticalAlign=top;rounded=1;absoluteArcSize=1;arcSize=10;dashed=0;whiteSpace=wrap;fillColor=#ffe6cc;strokeColor=#d79b00;" parent="ir2lZSe-M-KhIsvbzkP0-23" vertex="1">
          <mxGeometry x="78" y="310" width="140" height="40" as="geometry" />
        </mxCell>
        <mxCell id="xCekLvlc1uRamUwz6qQX-26" value="" style="rounded=0;whiteSpace=wrap;html=1;fillColor=#ffe6cc;strokeColor=#d79b00;" parent="ir2lZSe-M-KhIsvbzkP0-23" vertex="1">
          <mxGeometry x="218" y="320" width="11" height="20" as="geometry" />
        </mxCell>
        <mxCell id="xCekLvlc1uRamUwz6qQX-16" value="Уведомляет, что поля невалидны" style="html=1;align=center;verticalAlign=top;rounded=1;absoluteArcSize=1;arcSize=10;dashed=0;whiteSpace=wrap;fillColor=#ffe6cc;strokeColor=#d79b00;" parent="ir2lZSe-M-KhIsvbzkP0-23" vertex="1">
          <mxGeometry x="80.5" y="210" width="140" height="50" as="geometry" />
        </mxCell>
        <mxCell id="xCekLvlc1uRamUwz6qQX-34" style="edgeStyle=orthogonalEdgeStyle;rounded=0;orthogonalLoop=1;jettySize=auto;html=1;exitX=0.5;exitY=1;exitDx=0;exitDy=0;entryX=0.563;entryY=0;entryDx=0;entryDy=0;entryPerimeter=0;endArrow=open;endFill=0;" parent="ir2lZSe-M-KhIsvbzkP0-23" source="ir2lZSe-M-KhIsvbzkP0-51" target="xCekLvlc1uRamUwz6qQX-16" edge="1">
          <mxGeometry relative="1" as="geometry" />
        </mxCell>
        <mxCell id="xCekLvlc1uRamUwz6qQX-20" style="edgeStyle=orthogonalEdgeStyle;rounded=0;orthogonalLoop=1;jettySize=auto;html=1;endArrow=open;endFill=0;" parent="ir2lZSe-M-KhIsvbzkP0-23" target="xCekLvlc1uRamUwz6qQX-17" edge="1">
          <mxGeometry relative="1" as="geometry">
            <mxPoint x="148" y="410" as="sourcePoint" />
          </mxGeometry>
        </mxCell>
        <mxCell id="ir2lZSe-M-KhIsvbzkP0-53" value="Отправляет письмо с информацией о задаче" style="whiteSpace=wrap;html=1;verticalAlign=top;rounded=1;arcSize=10;dashed=0;fillColor=#ffe6cc;strokeColor=#d79b00;" parent="ir2lZSe-M-KhIsvbzkP0-23" vertex="1">
          <mxGeometry x="81" y="380" width="139" height="40" as="geometry" />
        </mxCell>
        <mxCell id="G-la0Pob9qoum0XM4EMd-46" value="" style="rounded=0;whiteSpace=wrap;html=1;fillColor=#ffe6cc;strokeColor=#d79b00;" parent="ir2lZSe-M-KhIsvbzkP0-23" vertex="1">
          <mxGeometry x="220" y="390" width="11" height="20" as="geometry" />
        </mxCell>
        <mxCell id="G-la0Pob9qoum0XM4EMd-51" value="[&lt;font style=&quot;font-size: 11px;&quot;&gt;else&lt;/font&gt;]" style="text;html=1;align=center;verticalAlign=middle;resizable=0;points=[];autosize=1;strokeColor=none;fillColor=none;" parent="ir2lZSe-M-KhIsvbzkP0-23" vertex="1">
          <mxGeometry x="113" y="180" width="50" height="30" as="geometry" />
        </mxCell>
        <mxCell id="G-la0Pob9qoum0XM4EMd-55" value="&lt;b&gt;Редактирование задачи&lt;br&gt;&lt;/b&gt;" style="shape=umlFrame;whiteSpace=wrap;html=1;pointerEvents=0;recursiveResize=0;container=1;collapsible=0;width=160;" parent="1" vertex="1">
          <mxGeometry x="-230" y="60" width="760" height="610" as="geometry" />
        </mxCell>
        <mxCell id="T8ucjeruHO8INisO1ARj-35" value="Редактирует поля: название, описание, выделенное время, статус&amp;nbsp;" style="html=1;align=center;verticalAlign=top;rounded=1;absoluteArcSize=1;arcSize=10;dashed=0;whiteSpace=wrap;fillColor=#ffe6cc;strokeColor=#d79b00;" vertex="1" parent="G-la0Pob9qoum0XM4EMd-55">
          <mxGeometry x="60.51" y="370" width="143.75" height="70" as="geometry" />
        </mxCell>
        <mxCell id="T8ucjeruHO8INisO1ARj-37" value="[менеджер]" style="text;html=1;align=center;verticalAlign=middle;resizable=0;points=[];autosize=1;strokeColor=none;fillColor=none;" vertex="1" parent="G-la0Pob9qoum0XM4EMd-55">
          <mxGeometry x="121.51" y="330" width="90" height="30" as="geometry" />
        </mxCell>
        <mxCell id="ir2lZSe-M-KhIsvbzkP0-46" value="" style="rounded=0;whiteSpace=wrap;html=1;fillColor=#ffe6cc;strokeColor=#d79b00;" parent="G-la0Pob9qoum0XM4EMd-55" vertex="1">
          <mxGeometry x="200.51" y="395" width="11" height="20" as="geometry" />
        </mxCell>
        <mxCell id="ir2lZSe-M-KhIsvbzkP0-86" value="" style="ellipse;html=1;shape=endState;fillColor=strokeColor;" parent="G-la0Pob9qoum0XM4EMd-55" vertex="1">
          <mxGeometry x="100" y="499.5" width="30" height="30" as="geometry" />
        </mxCell>
        <mxCell id="MW_tALFqJVt5w2Z439LA-10" value="" style="edgeStyle=orthogonalEdgeStyle;rounded=0;orthogonalLoop=1;jettySize=auto;html=1;entryX=0.5;entryY=0;entryDx=0;entryDy=0;" edge="1" parent="G-la0Pob9qoum0XM4EMd-55" source="MW_tALFqJVt5w2Z439LA-26" target="T8ucjeruHO8INisO1ARj-35">
          <mxGeometry relative="1" as="geometry">
            <mxPoint x="130" y="240" as="sourcePoint" />
            <mxPoint x="130.51428571428573" y="302" as="targetPoint" />
            <Array as="points" />
          </mxGeometry>
        </mxCell>
        <mxCell id="MW_tALFqJVt5w2Z439LA-14" value="Редактирует поля: затраченное время, тип статуса, исполнитель&amp;nbsp;" style="html=1;align=center;verticalAlign=top;rounded=1;absoluteArcSize=1;arcSize=10;dashed=0;whiteSpace=wrap;fillColor=#ffe6cc;strokeColor=#d79b00;" vertex="1" parent="G-la0Pob9qoum0XM4EMd-55">
          <mxGeometry x="62.379999999999995" y="212.5" width="140" height="60" as="geometry" />
        </mxCell>
        <mxCell id="MW_tALFqJVt5w2Z439LA-23" value="" style="rounded=0;whiteSpace=wrap;html=1;fillColor=#ffe6cc;strokeColor=#d79b00;" vertex="1" parent="G-la0Pob9qoum0XM4EMd-55">
          <mxGeometry x="202.38" y="232.5" width="11" height="20" as="geometry" />
        </mxCell>
        <mxCell id="MW_tALFqJVt5w2Z439LA-25" style="edgeStyle=orthogonalEdgeStyle;rounded=0;orthogonalLoop=1;jettySize=auto;html=1;" edge="1" parent="G-la0Pob9qoum0XM4EMd-55" source="ir2lZSe-M-KhIsvbzkP0-26" target="MW_tALFqJVt5w2Z439LA-14">
          <mxGeometry relative="1" as="geometry" />
        </mxCell>
        <mxCell id="ir2lZSe-M-KhIsvbzkP0-26" value="Выбирает &quot;Редактировать задачу&quot;" style="html=1;align=center;verticalAlign=top;rounded=1;absoluteArcSize=1;arcSize=10;dashed=0;whiteSpace=wrap;fillColor=#ffe6cc;strokeColor=#d79b00;" parent="G-la0Pob9qoum0XM4EMd-55" vertex="1">
          <mxGeometry x="62.379999999999995" y="130" width="140" height="40" as="geometry" />
        </mxCell>
        <mxCell id="ir2lZSe-M-KhIsvbzkP0-1" value="" style="ellipse;fillColor=strokeColor;html=1;" parent="G-la0Pob9qoum0XM4EMd-55" vertex="1">
          <mxGeometry x="115.50999999999999" y="80" width="30" height="30" as="geometry" />
        </mxCell>
        <mxCell id="ir2lZSe-M-KhIsvbzkP0-37" style="edgeStyle=orthogonalEdgeStyle;rounded=0;orthogonalLoop=1;jettySize=auto;html=1;endArrow=open;endFill=0;" parent="G-la0Pob9qoum0XM4EMd-55" source="ir2lZSe-M-KhIsvbzkP0-1" target="ir2lZSe-M-KhIsvbzkP0-26" edge="1">
          <mxGeometry relative="1" as="geometry">
            <Array as="points">
              <mxPoint x="130" y="160" />
              <mxPoint x="130" y="160" />
            </Array>
          </mxGeometry>
        </mxCell>
        <mxCell id="MW_tALFqJVt5w2Z439LA-26" value="" style="rhombus;whiteSpace=wrap;html=1;verticalAlign=top;rounded=0;arcSize=10;dashed=0;fillColor=#647687;fontColor=#ffffff;strokeColor=#314354;" vertex="1" parent="G-la0Pob9qoum0XM4EMd-55">
          <mxGeometry x="117.38" y="310" width="30" height="20" as="geometry" />
        </mxCell>
        <mxCell id="MW_tALFqJVt5w2Z439LA-27" value="" style="edgeStyle=orthogonalEdgeStyle;rounded=0;orthogonalLoop=1;jettySize=auto;html=1;entryX=0.5;entryY=0;entryDx=0;entryDy=0;" edge="1" parent="G-la0Pob9qoum0XM4EMd-55" source="MW_tALFqJVt5w2Z439LA-14" target="MW_tALFqJVt5w2Z439LA-26">
          <mxGeometry relative="1" as="geometry">
            <mxPoint x="-101" y="320" as="sourcePoint" />
            <mxPoint x="-99" y="390" as="targetPoint" />
            <Array as="points" />
          </mxGeometry>
        </mxCell>
        <mxCell id="G-la0Pob9qoum0XM4EMd-39" value="&lt;div&gt;&amp;lt;&amp;lt;datastore&amp;gt;&amp;gt;&lt;/div&gt;&lt;div&gt;Задача&lt;br&gt;&lt;/div&gt;" style="rounded=0;whiteSpace=wrap;html=1;fillColor=#d5e8d4;strokeColor=#82b366;" parent="G-la0Pob9qoum0XM4EMd-55" vertex="1">
          <mxGeometry x="260" y="212.5" width="100" height="35" as="geometry" />
        </mxCell>
        <mxCell id="G-la0Pob9qoum0XM4EMd-43" style="edgeStyle=orthogonalEdgeStyle;rounded=0;orthogonalLoop=1;jettySize=auto;html=1;entryX=0.5;entryY=1;entryDx=0;entryDy=0;fillColor=#0050ef;strokeColor=#001DBC;jumpStyle=arc;endArrow=open;endFill=0;" parent="G-la0Pob9qoum0XM4EMd-55" source="ir2lZSe-M-KhIsvbzkP0-46" target="G-la0Pob9qoum0XM4EMd-39" edge="1">
          <mxGeometry relative="1" as="geometry" />
        </mxCell>
        <mxCell id="MW_tALFqJVt5w2Z439LA-24" style="edgeStyle=orthogonalEdgeStyle;rounded=0;orthogonalLoop=1;jettySize=auto;html=1;entryX=0;entryY=0.5;entryDx=0;entryDy=0;fillColor=#0050ef;strokeColor=#001DBC;" edge="1" parent="G-la0Pob9qoum0XM4EMd-55" source="MW_tALFqJVt5w2Z439LA-23" target="G-la0Pob9qoum0XM4EMd-39">
          <mxGeometry relative="1" as="geometry" />
        </mxCell>
        <mxCell id="MW_tALFqJVt5w2Z439LA-31" value="[else]" style="text;html=1;align=center;verticalAlign=middle;resizable=0;points=[];autosize=1;strokeColor=none;fillColor=none;" vertex="1" parent="G-la0Pob9qoum0XM4EMd-55">
          <mxGeometry x="159.63" y="280" width="50" height="30" as="geometry" />
        </mxCell>
        <mxCell id="xCekLvlc1uRamUwz6qQX-17" value="Уведомляет об успешном создании задачи" style="html=1;align=center;verticalAlign=top;rounded=1;absoluteArcSize=1;arcSize=10;dashed=0;whiteSpace=wrap;fillColor=#ffe6cc;strokeColor=#d79b00;" parent="G-la0Pob9qoum0XM4EMd-55" vertex="1">
          <mxGeometry x="360" y="529.5" width="140" height="50" as="geometry" />
        </mxCell>
        <mxCell id="xCekLvlc1uRamUwz6qQX-21" style="edgeStyle=orthogonalEdgeStyle;rounded=0;orthogonalLoop=1;jettySize=auto;html=1;endArrow=open;endFill=0;entryX=0.5;entryY=1;entryDx=0;entryDy=0;" parent="G-la0Pob9qoum0XM4EMd-55" source="xCekLvlc1uRamUwz6qQX-17" target="ir2lZSe-M-KhIsvbzkP0-86" edge="1">
          <mxGeometry relative="1" as="geometry">
            <mxPoint x="171.10000000000014" y="450.36" as="targetPoint" />
            <Array as="points">
              <mxPoint x="115" y="554" />
            </Array>
          </mxGeometry>
        </mxCell>
        <mxCell id="G-la0Pob9qoum0XM4EMd-44" style="edgeStyle=orthogonalEdgeStyle;rounded=0;orthogonalLoop=1;jettySize=auto;html=1;entryX=0.5;entryY=0;entryDx=0;entryDy=0;exitX=0;exitY=0.5;exitDx=0;exitDy=0;endArrow=open;endFill=0;" parent="1" source="xCekLvlc1uRamUwz6qQX-16" target="ir2lZSe-M-KhIsvbzkP0-86" edge="1">
          <mxGeometry relative="1" as="geometry">
            <mxPoint x="168.13" y="370" as="sourcePoint" />
            <mxPoint x="-108.11000000000001" y="539.15" as="targetPoint" />
            <Array as="points">
              <mxPoint x="100" y="345" />
              <mxPoint x="100" y="530" />
              <mxPoint x="-115" y="530" />
            </Array>
          </mxGeometry>
        </mxCell>
        <mxCell id="MW_tALFqJVt5w2Z439LA-28" style="edgeStyle=orthogonalEdgeStyle;rounded=0;orthogonalLoop=1;jettySize=auto;html=1;entryX=0;entryY=0.5;entryDx=0;entryDy=0;" edge="1" parent="1" source="MW_tALFqJVt5w2Z439LA-26" target="ir2lZSe-M-KhIsvbzkP0-47">
          <mxGeometry relative="1" as="geometry">
            <Array as="points">
              <mxPoint y="380" />
              <mxPoint y="200" />
            </Array>
          </mxGeometry>
        </mxCell>
        <mxCell id="G-la0Pob9qoum0XM4EMd-45" style="edgeStyle=orthogonalEdgeStyle;rounded=0;orthogonalLoop=1;jettySize=auto;html=1;entryX=0.5;entryY=1;entryDx=0;entryDy=0;fillColor=#0050ef;strokeColor=#001DBC;endArrow=open;endFill=0;" parent="1" source="G-la0Pob9qoum0XM4EMd-39" target="ir2lZSe-M-KhIsvbzkP0-56" edge="1">
          <mxGeometry relative="1" as="geometry" />
        </mxCell>
        <mxCell id="G-la0Pob9qoum0XM4EMd-48" style="edgeStyle=orthogonalEdgeStyle;rounded=0;orthogonalLoop=1;jettySize=auto;html=1;entryX=1;entryY=0.5;entryDx=0;entryDy=0;fillColor=#0050ef;strokeColor=#001DBC;jumpStyle=arc;endArrow=open;endFill=0;" parent="1" source="G-la0Pob9qoum0XM4EMd-39" target="G-la0Pob9qoum0XM4EMd-46" edge="1">
          <mxGeometry relative="1" as="geometry">
            <Array as="points">
              <mxPoint x="350" y="287" />
              <mxPoint x="350" y="510" />
            </Array>
          </mxGeometry>
        </mxCell>
        <mxCell id="G-la0Pob9qoum0XM4EMd-49" style="edgeStyle=orthogonalEdgeStyle;rounded=0;orthogonalLoop=1;jettySize=auto;html=1;entryX=1;entryY=0.5;entryDx=0;entryDy=0;fillColor=#0050ef;strokeColor=#001DBC;jumpStyle=arc;endArrow=open;endFill=0;" parent="1" source="G-la0Pob9qoum0XM4EMd-39" target="xCekLvlc1uRamUwz6qQX-26" edge="1">
          <mxGeometry relative="1" as="geometry">
            <Array as="points">
              <mxPoint x="350" y="287" />
              <mxPoint x="350" y="440" />
            </Array>
          </mxGeometry>
        </mxCell>
        <mxCell id="MW_tALFqJVt5w2Z439LA-30" style="edgeStyle=orthogonalEdgeStyle;rounded=0;orthogonalLoop=1;jettySize=auto;html=1;entryX=0;entryY=0.75;entryDx=0;entryDy=0;" edge="1" parent="1" source="T8ucjeruHO8INisO1ARj-35" target="ir2lZSe-M-KhIsvbzkP0-47">
          <mxGeometry relative="1" as="geometry">
            <Array as="points">
              <mxPoint x="10" y="480" />
              <mxPoint x="10" y="210" />
            </Array>
          </mxGeometry>
        </mxCell>
      </root>
    </mxGraphModel>
  </diagram>
  <diagram id="fDYZSVcYAsIUWVUb6QS3" name="Страница — 2">
    <mxGraphModel dx="1430" dy="825" grid="1" gridSize="10" guides="1" tooltips="1" connect="1" arrows="1" fold="1" page="1" pageScale="1" pageWidth="827" pageHeight="1169" math="0" shadow="0">
      <root>
        <mxCell id="0" />
        <mxCell id="1" parent="0" />
        <mxCell id="y5KSrTJzy2jS72uTcM3v-4" value="" style="line;strokeWidth=4;fillColor=none;align=left;verticalAlign=middle;spacingTop=-1;spacingLeft=3;spacingRight=3;rotatable=0;labelPosition=right;points=[];portConstraint=eastwest;strokeColor=inherit;" vertex="1" parent="1">
          <mxGeometry x="280" y="640" width="180" height="8" as="geometry" />
        </mxCell>
        <mxCell id="y5KSrTJzy2jS72uTcM3v-5" value="" style="endArrow=classic;html=1;rounded=0;entryX=0.502;entryY=0.395;entryDx=0;entryDy=0;entryPerimeter=0;" edge="1" parent="1" target="y5KSrTJzy2jS72uTcM3v-4">
          <mxGeometry width="50" height="50" relative="1" as="geometry">
            <mxPoint x="370" y="580" as="sourcePoint" />
            <mxPoint x="370" y="640" as="targetPoint" />
          </mxGeometry>
        </mxCell>
        <mxCell id="BYi3jBHLM1JnAWLNlmiE-11" style="edgeStyle=orthogonalEdgeStyle;rounded=0;orthogonalLoop=1;jettySize=auto;html=1;entryX=0.266;entryY=0.625;entryDx=0;entryDy=0;entryPerimeter=0;" edge="1" parent="1" source="y5KSrTJzy2jS72uTcM3v-8" target="BYi3jBHLM1JnAWLNlmiE-9">
          <mxGeometry relative="1" as="geometry">
            <Array as="points">
              <mxPoint x="347" y="780" />
              <mxPoint x="347" y="875" />
            </Array>
          </mxGeometry>
        </mxCell>
        <mxCell id="y5KSrTJzy2jS72uTcM3v-8" value="Редактировать название" style="rounded=1;whiteSpace=wrap;html=1;" vertex="1" parent="1">
          <mxGeometry x="220" y="760" width="100" height="40" as="geometry" />
        </mxCell>
        <mxCell id="BYi3jBHLM1JnAWLNlmiE-12" style="edgeStyle=orthogonalEdgeStyle;rounded=0;orthogonalLoop=1;jettySize=auto;html=1;entryX=0.9;entryY=0.448;entryDx=0;entryDy=0;entryPerimeter=0;" edge="1" parent="1" source="vG9BG1PcNSN2kovtvqYP-1" target="BYi3jBHLM1JnAWLNlmiE-9">
          <mxGeometry relative="1" as="geometry">
            <Array as="points">
              <mxPoint x="414" y="840" />
              <mxPoint x="410" y="840" />
            </Array>
          </mxGeometry>
        </mxCell>
        <mxCell id="vG9BG1PcNSN2kovtvqYP-1" value="Редактировать статус: название, тип статуса" style="rounded=1;whiteSpace=wrap;html=1;" vertex="1" parent="1">
          <mxGeometry x="354" y="750" width="120" height="60" as="geometry" />
        </mxCell>
        <mxCell id="vG9BG1PcNSN2kovtvqYP-2" value="Редактировать описание" style="rounded=1;whiteSpace=wrap;html=1;" vertex="1" parent="1">
          <mxGeometry x="220" y="690" width="110" height="40" as="geometry" />
        </mxCell>
        <mxCell id="vG9BG1PcNSN2kovtvqYP-3" value="Редактировать выделенное время&amp;nbsp;" style="rounded=1;whiteSpace=wrap;html=1;" vertex="1" parent="1">
          <mxGeometry x="430" y="700" width="100" height="40" as="geometry" />
        </mxCell>
        <mxCell id="BYi3jBHLM1JnAWLNlmiE-1" value="" style="endArrow=classic;html=1;rounded=0;entryX=0.5;entryY=0;entryDx=0;entryDy=0;exitX=0.157;exitY=0.784;exitDx=0;exitDy=0;exitPerimeter=0;" edge="1" parent="1" source="y5KSrTJzy2jS72uTcM3v-4" target="vG9BG1PcNSN2kovtvqYP-2">
          <mxGeometry width="50" height="50" relative="1" as="geometry">
            <mxPoint x="290" y="730" as="sourcePoint" />
            <mxPoint x="340" y="680" as="targetPoint" />
          </mxGeometry>
        </mxCell>
        <mxCell id="BYi3jBHLM1JnAWLNlmiE-3" value="" style="endArrow=classic;html=1;rounded=0;entryX=1;entryY=0.5;entryDx=0;entryDy=0;exitX=0.365;exitY=0.601;exitDx=0;exitDy=0;exitPerimeter=0;" edge="1" parent="1" source="y5KSrTJzy2jS72uTcM3v-4" target="y5KSrTJzy2jS72uTcM3v-8">
          <mxGeometry width="50" height="50" relative="1" as="geometry">
            <mxPoint x="290" y="730" as="sourcePoint" />
            <mxPoint x="340" y="680" as="targetPoint" />
          </mxGeometry>
        </mxCell>
        <mxCell id="BYi3jBHLM1JnAWLNlmiE-6" value="" style="endArrow=classic;html=1;rounded=0;entryX=0.5;entryY=0;entryDx=0;entryDy=0;exitX=0.926;exitY=0.784;exitDx=0;exitDy=0;exitPerimeter=0;" edge="1" parent="1" source="y5KSrTJzy2jS72uTcM3v-4" target="vG9BG1PcNSN2kovtvqYP-3">
          <mxGeometry width="50" height="50" relative="1" as="geometry">
            <mxPoint x="290" y="730" as="sourcePoint" />
            <mxPoint x="340" y="680" as="targetPoint" />
          </mxGeometry>
        </mxCell>
        <mxCell id="BYi3jBHLM1JnAWLNlmiE-7" value="" style="endArrow=classic;html=1;rounded=0;entryX=0.5;entryY=0;entryDx=0;entryDy=0;exitX=0.682;exitY=0.784;exitDx=0;exitDy=0;exitPerimeter=0;" edge="1" parent="1" source="y5KSrTJzy2jS72uTcM3v-4" target="vG9BG1PcNSN2kovtvqYP-1">
          <mxGeometry width="50" height="50" relative="1" as="geometry">
            <mxPoint x="290" y="730" as="sourcePoint" />
            <mxPoint x="340" y="680" as="targetPoint" />
          </mxGeometry>
        </mxCell>
        <mxCell id="BYi3jBHLM1JnAWLNlmiE-9" value="" style="line;strokeWidth=5;fillColor=none;align=left;verticalAlign=middle;spacingTop=-1;spacingLeft=3;spacingRight=3;rotatable=0;labelPosition=right;points=[];portConstraint=eastwest;strokeColor=inherit;" vertex="1" parent="1">
          <mxGeometry x="320" y="870" width="100" height="8" as="geometry" />
        </mxCell>
        <mxCell id="BYi3jBHLM1JnAWLNlmiE-10" style="edgeStyle=orthogonalEdgeStyle;rounded=0;orthogonalLoop=1;jettySize=auto;html=1;entryX=0.441;entryY=0.448;entryDx=0;entryDy=0;entryPerimeter=0;" edge="1" parent="1" source="vG9BG1PcNSN2kovtvqYP-2" target="BYi3jBHLM1JnAWLNlmiE-9">
          <mxGeometry relative="1" as="geometry">
            <Array as="points">
              <mxPoint x="190" y="710" />
              <mxPoint x="190" y="840" />
              <mxPoint x="364" y="840" />
            </Array>
          </mxGeometry>
        </mxCell>
        <mxCell id="BYi3jBHLM1JnAWLNlmiE-13" style="edgeStyle=orthogonalEdgeStyle;rounded=0;orthogonalLoop=1;jettySize=auto;html=1;entryX=0.665;entryY=0.57;entryDx=0;entryDy=0;entryPerimeter=0;" edge="1" parent="1" source="vG9BG1PcNSN2kovtvqYP-3" target="BYi3jBHLM1JnAWLNlmiE-9">
          <mxGeometry relative="1" as="geometry">
            <Array as="points">
              <mxPoint x="480" y="840" />
              <mxPoint x="386" y="840" />
            </Array>
          </mxGeometry>
        </mxCell>
        <mxCell id="n3aOMZlkYlHZZuqjY32m-1" value="[менеджер]" style="text;html=1;strokeColor=none;fillColor=none;align=center;verticalAlign=middle;whiteSpace=wrap;rounded=0;" vertex="1" parent="1">
          <mxGeometry x="376" y="600" width="60" height="28" as="geometry" />
        </mxCell>
      </root>
    </mxGraphModel>
  </diagram>
</mxfile>
